<svg width="80" height="80" fill="none" xmlns="http://www.w3.org/2000/svg"><g filter="url(#a)"><path d="M70.833 46.215a1.688 1.688 0 0 1-1.043 3.21l-2.9-.941a1.687 1.687 0 1 1 1.044-3.212l2.899.943ZM68.094 28.888a4.196 4.196 0 0 1-1.068 4.327L56.893 43.09a.849.849 0 0 0-.243.748l2.392 13.947a4.195 4.195 0 0 1-1.678 4.128 4.21 4.21 0 0 1-2.477.81 4.223 4.223 0 0 1-1.968-.49L40.392 55.65a.839.839 0 0 0-.785 0l-12.525 6.584a4.193 4.193 0 0 1-4.445-.32 4.192 4.192 0 0 1-1.68-4.128l2.392-13.947a.844.844 0 0 0-.243-.748l-10.133-9.876a4.195 4.195 0 0 1-1.067-4.327 4.193 4.193 0 0 1 3.407-2.873l14.004-2.035a.847.847 0 0 0 .635-.463l6.262-12.688A4.199 4.199 0 0 1 40 8.477c1.619 0 3.07.901 3.785 2.351l6.264 12.69c.123.25.36.421.634.462l14.005 2.034a4.195 4.195 0 0 1 3.406 2.874Zm-3.425 1.908a.82.82 0 0 0 .214-.865.822.822 0 0 0-.682-.574L50.2 27.321a4.217 4.217 0 0 1-3.18-2.308l-6.26-12.69a.81.81 0 0 0-.4-.394.899.899 0 0 0-.359-.076.823.823 0 0 0-.756.47l-6.264 12.69a4.217 4.217 0 0 1-3.177 2.308l-14.004 2.036a.821.821 0 0 0-.68.574.819.819 0 0 0 .212.864l10.133 9.879a4.219 4.219 0 0 1 1.214 3.736l-2.392 13.947c-.08.465.209.732.336.825a.822.822 0 0 0 .89.064l12.525-6.584a4.21 4.21 0 0 1 3.928 0l12.525 6.584a.819.819 0 0 0 .888-.064.82.82 0 0 0 .336-.826L53.322 44.41a4.224 4.224 0 0 1 1.214-3.736l10.133-9.878Z" fill="#D6A850"/><path d="M64.883 29.931a.82.82 0 0 1-.214.864l-10.133 9.879a4.224 4.224 0 0 0-1.214 3.736l2.392 13.946a.82.82 0 0 1-.336.826.819.819 0 0 1-.888.064l-12.525-6.584a4.216 4.216 0 0 0-3.929 0l-12.525 6.584a.823.823 0 0 1-.89-.064.827.827 0 0 1-.336-.825l2.393-13.947a4.22 4.22 0 0 0-1.214-3.736L15.33 30.796a.82.82 0 0 1-.213-.865.821.821 0 0 1 .68-.574l14.005-2.036a4.217 4.217 0 0 0 3.177-2.308l6.264-12.69c.209-.424.599-.47.756-.47.08 0 .216.012.36.076a.81.81 0 0 1 .398.393l6.262 12.691a4.217 4.217 0 0 0 3.179 2.308L64.2 29.357c.47.068.633.424.682.574Z" fill="#CCA14F"/><path d="M59.723 10.828c.754.547.921 1.604.374 2.357l-1.793 2.467a1.684 1.684 0 0 1-2.358.375 1.69 1.69 0 0 1-.373-2.359l1.793-2.467a1.686 1.686 0 0 1 2.357-.373ZM41.688 66.786v3.049a1.688 1.688 0 1 1-3.377 0v-3.049a1.689 1.689 0 0 1 3.377 0ZM24.42 13.658a1.69 1.69 0 0 1-1.364 2.68 1.684 1.684 0 0 1-1.367-.695l-1.793-2.466a1.687 1.687 0 1 1 2.732-1.985l1.793 2.466ZM14.194 46.353a1.688 1.688 0 0 1-1.084 2.129l-2.899.942a1.689 1.689 0 0 1-1.043-3.213l2.899-.942a1.688 1.688 0 0 1 2.127 1.084Z" fill="#D6A850"/></g><path d="M70.833 46.215a1.688 1.688 0 0 1-1.043 3.21l-2.9-.941a1.687 1.687 0 1 1 1.044-3.212l2.899.943ZM68.094 28.888a4.196 4.196 0 0 1-1.068 4.327L56.893 43.09a.849.849 0 0 0-.243.748l2.392 13.947a4.195 4.195 0 0 1-1.678 4.128 4.21 4.21 0 0 1-2.477.81 4.223 4.223 0 0 1-1.968-.49L40.392 55.65a.839.839 0 0 0-.785 0l-12.525 6.584a4.193 4.193 0 0 1-4.445-.32 4.192 4.192 0 0 1-1.68-4.128l2.392-13.947a.844.844 0 0 0-.243-.748l-10.133-9.876a4.195 4.195 0 0 1-1.067-4.327 4.193 4.193 0 0 1 3.407-2.873l14.004-2.035a.847.847 0 0 0 .635-.463l6.262-12.688A4.199 4.199 0 0 1 40 8.477c1.619 0 3.07.901 3.785 2.351l6.264 12.69c.123.25.36.421.634.462l14.005 2.034a4.195 4.195 0 0 1 3.406 2.874Zm-3.425 1.908a.82.82 0 0 0 .214-.865.822.822 0 0 0-.682-.574L50.2 27.321a4.217 4.217 0 0 1-3.18-2.308l-6.26-12.69a.81.81 0 0 0-.4-.394.899.899 0 0 0-.359-.076.823.823 0 0 0-.756.47l-6.264 12.69a4.217 4.217 0 0 1-3.177 2.308l-14.004 2.036a.821.821 0 0 0-.68.574.819.819 0 0 0 .212.864l10.133 9.879a4.219 4.219 0 0 1 1.214 3.736l-2.392 13.947c-.08.465.209.732.336.825a.822.822 0 0 0 .89.064l12.525-6.584a4.21 4.21 0 0 1 3.928 0l12.525 6.584a.819.819 0 0 0 .888-.064.82.82 0 0 0 .336-.826L53.322 44.41a4.224 4.224 0 0 1 1.214-3.736l10.133-9.878Z" fill="#EFBE44"/><path d="M64.883 29.931a.82.82 0 0 1-.214.864l-10.133 9.879a4.224 4.224 0 0 0-1.214 3.736l2.392 13.946a.82.82 0 0 1-.336.826.819.819 0 0 1-.888.064l-12.525-6.584a4.216 4.216 0 0 0-3.929 0l-12.525 6.584a.823.823 0 0 1-.89-.064.827.827 0 0 1-.336-.825l2.393-13.947a4.22 4.22 0 0 0-1.214-3.736L15.33 30.796a.82.82 0 0 1-.213-.865.821.821 0 0 1 .68-.574l14.005-2.036a4.217 4.217 0 0 0 3.177-2.308l6.264-12.69c.209-.424.599-.47.756-.47.08 0 .216.012.36.076a.81.81 0 0 1 .398.393l6.262 12.691a4.217 4.217 0 0 0 3.179 2.308L64.2 29.357c.47.068.633.424.682.574Z" fill="#E4A738"/><path d="M59.723 10.828c.754.547.921 1.604.374 2.357l-1.793 2.467a1.684 1.684 0 0 1-2.358.375 1.69 1.69 0 0 1-.373-2.359l1.793-2.467a1.686 1.686 0 0 1 2.357-.373ZM41.688 66.786v3.049a1.688 1.688 0 1 1-3.377 0v-3.049a1.689 1.689 0 0 1 3.377 0ZM24.42 13.658a1.69 1.69 0 0 1-1.364 2.68 1.684 1.684 0 0 1-1.367-.695l-1.793-2.466a1.687 1.687 0 1 1 2.732-1.985l1.793 2.466ZM14.194 46.353a1.688 1.688 0 0 1-1.084 2.129l-2.899.942a1.689 1.689 0 0 1-1.043-3.213l2.899-.942a1.688 1.688 0 0 1 2.127 1.084Z" fill="#EFBE44"/><defs><filter id="a" x="0" y="0" width="80" height="80" filterUnits="userSpaceOnUse" color-interpolation-filters="sRGB"><feFlood flood-opacity="0" result="BackgroundImageFix"/><feBlend in="SourceGraphic" in2="BackgroundImageFix" result="shape"/><feGaussianBlur stdDeviation="4" result="effect1_foregroundBlur"/></filter></defs></svg>