<svg width="1440" height="2265" viewBox="0 0 1440 2265" fill="none" xmlns="http://www.w3.org/2000/svg">
<rect x="1254.06" y="1742.51" width="195" height="211" rx="20" transform="rotate(-122.252 1254.06 1742.51)" fill="#D9A000" fill-opacity="0.05"/>
<rect x="1291.06" y="2049.51" width="195" height="211" rx="20" transform="rotate(-122.252 1291.06 2049.51)" fill="#D9A000" fill-opacity="0.05"/>
<rect x="1075.06" y="2226.51" width="195" height="211" rx="20" transform="rotate(-122.252 1075.06 2226.51)" fill="#5ECEA1" fill-opacity="0.1"/>
<rect x="1096.88" y="1885.35" width="125.319" height="135.602" rx="20" transform="rotate(-122.252 1096.88 1885.35)" fill="#5ECEA1" fill-opacity="0.1"/>
<rect x="37.0596" y="2265.08" width="195" height="189.586" rx="20" transform="rotate(-122.252 37.0596 2265.08)" fill="#D9A000" fill-opacity="0.05"/>
<rect x="81.8752" y="1951.35" width="125.319" height="135.602" rx="20" transform="rotate(-122.252 81.8752 1951.35)" fill="#5ECEA1" fill-opacity="0.1"/>
<rect x="1111.54" y="88" width="144" height="144" rx="30" transform="rotate(33.53 1111.54 88)" fill="#5ECEA1" fill-opacity="0.1"/>
<rect x="-0.458252" y="34" width="144" height="144" rx="30" transform="rotate(33.53 -0.458252 34)" fill="#5ECEA1" fill-opacity="0.12"/>
<rect x="978.538" y="248" width="208.629" height="203.736" rx="30" transform="rotate(33.53 978.538 248)" fill="#D9A000" fill-opacity="0.05"/>
<rect x="1278.54" y="-124" width="208.629" height="203.736" rx="30" transform="rotate(33.53 1278.54 -124)" fill="#5ECEA1" fill-opacity="0.1"/>
<rect x="1293.02" y="188" width="181.115" height="186.511" rx="30" transform="rotate(33.53 1293.02 188)" fill="#5ECEA1" fill-opacity="0.15"/>
</svg>
