<svg width="80" height="72" fill="none" xmlns="http://www.w3.org/2000/svg"><g filter="url(#a)" fill="#D6A850"><path d="M62.761 38.165h-4.95c.505 1.381.78 2.872.78 4.425v18.707c0 .648-.112 1.27-.317 1.848h8.183A5.55 5.55 0 0 0 72 57.6V47.404c0-5.095-4.144-9.239-9.239-9.239ZM21.408 42.59c0-1.553.276-3.044.78-4.425h-4.95C12.146 38.165 8 42.31 8 47.404v10.198a5.55 5.55 0 0 0 5.543 5.543h8.183a5.518 5.518 0 0 1-.318-1.848V42.591ZM45.657 33.352H34.343c-5.094 0-9.238 4.144-9.238 9.239v18.706c0 1.02.827 1.848 1.847 1.848H53.05c1.02 0 1.847-.828 1.847-1.848V42.591c0-5.095-4.144-9.24-9.239-9.24ZM40 8.855c-6.126 0-11.11 4.984-11.11 11.11 0 4.157 2.293 7.786 5.68 9.691a11.042 11.042 0 0 0 5.43 1.42c1.971 0 3.824-.516 5.43-1.42 3.388-1.905 5.681-5.535 5.681-9.69 0-6.127-4.984-11.111-11.11-11.111ZM20.49 19.211c-4.582 0-8.31 3.728-8.31 8.31 0 4.581 3.728 8.309 8.31 8.309 1.162 0 2.269-.24 3.274-.673a8.362 8.362 0 0 0 4.059-3.733 8.257 8.257 0 0 0 .976-3.903c0-4.582-3.727-8.31-8.31-8.31ZM59.51 19.211c-4.581 0-8.309 3.728-8.309 8.31 0 1.41.354 2.738.977 3.903a8.36 8.36 0 0 0 4.058 3.733 8.262 8.262 0 0 0 3.274.673c4.582 0 8.31-3.727 8.31-8.31 0-4.581-3.728-8.309-8.31-8.309Z"/></g><path d="M62.761 38.165h-4.95c.505 1.381.78 2.872.78 4.425v18.707c0 .648-.112 1.27-.317 1.848h8.183A5.55 5.55 0 0 0 72 57.6V47.404c0-5.095-4.144-9.239-9.239-9.239ZM21.408 42.59c0-1.553.276-3.044.78-4.425h-4.95C12.146 38.165 8 42.31 8 47.404v10.198a5.55 5.55 0 0 0 5.543 5.543h8.183a5.518 5.518 0 0 1-.318-1.848V42.591Z" fill="#E4A738"/><path d="M45.657 33.352H34.343c-5.094 0-9.238 4.144-9.238 9.239v18.706c0 1.02.827 1.848 1.847 1.848H53.05c1.02 0 1.847-.828 1.847-1.848V42.591c0-5.095-4.144-9.24-9.239-9.24ZM40 8.855c-6.126 0-11.11 4.984-11.11 11.11 0 4.157 2.293 7.786 5.68 9.691a11.042 11.042 0 0 0 5.43 1.42c1.971 0 3.824-.516 5.43-1.42 3.388-1.905 5.681-5.535 5.681-9.69 0-6.127-4.984-11.111-11.11-11.111Z" fill="#EFBE44"/><path d="M20.49 19.211c-4.582 0-8.31 3.728-8.31 8.31 0 4.581 3.728 8.309 8.31 8.309 1.162 0 2.269-.24 3.274-.673a8.362 8.362 0 0 0 4.059-3.733 8.257 8.257 0 0 0 .976-3.903c0-4.582-3.727-8.31-8.31-8.31ZM59.51 19.211c-4.581 0-8.309 3.728-8.309 8.31 0 1.41.354 2.738.977 3.903a8.36 8.36 0 0 0 4.058 3.733 8.262 8.262 0 0 0 3.274.673c4.582 0 8.31-3.727 8.31-8.31 0-4.581-3.728-8.309-8.31-8.309Z" fill="#E4A738"/><defs><filter id="a" x="0" y="-4" width="80" height="80" filterUnits="userSpaceOnUse" color-interpolation-filters="sRGB"><feFlood flood-opacity="0" result="BackgroundImageFix"/><feBlend in="SourceGraphic" in2="BackgroundImageFix" result="shape"/><feGaussianBlur stdDeviation="4" result="effect1_foregroundBlur"/></filter></defs></svg>