<svg width="80" height="80" fill="none" xmlns="http://www.w3.org/2000/svg"><g clip-path="url(#a)" filter="url(#b)"><path d="M65.895 14.105C61.96 10.168 56.72 8 51.14 8s-10.821 2.168-14.757 6.105c-5.324 5.324-7.336 12.942-5.4 20.156L8.612 56.815A2.087 2.087 0 0 0 8 58.291v11.622C8 71.066 8.934 72 10.087 72h11.622c.554 0 1.085-.22 1.476-.612l2.95-2.95c.392-.392.64-.922.64-1.476v-3.59h3.788c.554 0 1.085-.263 1.476-.654l2.951-2.952c.392-.391.695-.922.695-1.475v-3.83h3.733c.554 0 1.084-.206 1.476-.597l4.845-4.846c7.216 1.937 14.833-.076 20.157-5.4C69.832 39.682 72 34.441 72 28.861s-2.167-10.82-6.105-14.756ZM59.82 31.994a8.325 8.325 0 0 1-5.903 2.44 8.325 8.325 0 0 1-5.903-2.44c-3.255-3.256-3.255-8.551 0-11.805a8.29 8.29 0 0 1 5.903-2.443c2.231 0 4.328.867 5.903 2.443 3.255 3.254 3.255 8.55 0 11.805Z" fill="#EFBE44"/><path d="m65.895 14.105-6.08 6.08a.045.045 0 0 0 .005.004c3.255 3.254 3.255 8.55 0 11.805a8.326 8.326 0 0 1-5.903 2.44 8.325 8.325 0 0 1-5.903-2.44l-.004-.004L8.61 71.389c.378.377.9.611 1.476.611h11.622c.554 0 1.085-.22 1.476-.611l2.95-2.951c.392-.392.64-.922.64-1.476v-3.59h3.788c.554 0 1.084-.263 1.476-.654l2.951-2.952c.392-.391.695-.922.695-1.475v-3.83h3.733c.553 0 1.084-.206 1.475-.598l4.846-4.846c7.216 1.938 14.833-.075 20.156-5.399C69.833 39.682 72 34.441 72 28.861s-2.167-10.82-6.105-14.756Z" fill="#E4A738"/></g><g clip-path="url(#c)"><path d="M65.895 14.105C61.96 10.168 56.72 8 51.14 8s-10.821 2.168-14.757 6.105c-5.324 5.324-7.336 12.942-5.4 20.156L8.612 56.815A2.087 2.087 0 0 0 8 58.291v11.622C8 71.066 8.934 72 10.087 72h11.622c.554 0 1.085-.22 1.476-.612l2.95-2.95c.392-.392.64-.922.64-1.476v-3.59h3.788c.554 0 1.085-.263 1.476-.654l2.951-2.952c.392-.391.695-.922.695-1.475v-3.83h3.733c.554 0 1.084-.206 1.476-.597l4.845-4.846c7.216 1.937 14.833-.076 20.157-5.4C69.832 39.682 72 34.441 72 28.861s-2.167-10.82-6.105-14.756ZM59.82 31.994a8.325 8.325 0 0 1-5.903 2.44 8.325 8.325 0 0 1-5.903-2.44c-3.255-3.256-3.255-8.551 0-11.805a8.29 8.29 0 0 1 5.903-2.443c2.231 0 4.328.867 5.903 2.443 3.255 3.254 3.255 8.55 0 11.805Z" fill="#EFBE44"/><path d="m65.895 14.105-6.08 6.08a.045.045 0 0 0 .005.004c3.255 3.254 3.255 8.55 0 11.805a8.326 8.326 0 0 1-5.903 2.44 8.325 8.325 0 0 1-5.903-2.44l-.004-.004L8.61 71.389c.378.377.9.611 1.476.611h11.622c.554 0 1.085-.22 1.476-.611l2.95-2.951c.392-.392.64-.922.64-1.476v-3.59h3.788c.554 0 1.084-.263 1.476-.654l2.951-2.952c.392-.391.695-.922.695-1.475v-3.83h3.733c.553 0 1.084-.206 1.475-.598l4.846-4.846c7.216 1.938 14.833-.075 20.156-5.399C69.833 39.682 72 34.441 72 28.861s-2.167-10.82-6.105-14.756Z" fill="#E4A738"/></g><defs><clipPath id="a"><path fill="#fff" transform="translate(8 8)" d="M0 0h64v64H0z"/></clipPath><clipPath id="c"><path fill="#fff" transform="translate(8 8)" d="M0 0h64v64H0z"/></clipPath><filter id="b" x="0" y="0" width="80" height="80" filterUnits="userSpaceOnUse" color-interpolation-filters="sRGB"><feFlood flood-opacity="0" result="BackgroundImageFix"/><feBlend in="SourceGraphic" in2="BackgroundImageFix" result="shape"/><feGaussianBlur stdDeviation="4" result="effect1_foregroundBlur"/></filter></defs></svg>