<svg width="27" height="39" fill="none" xmlns="http://www.w3.org/2000/svg"><path d="M23.241 20.983a6.897 6.897 0 0 0-.936-1.33c-.333-.361-.77-.691-1.312-.99a12.8 12.8 0 0 0-1.438-.694c-.416-.165-.974-.33-1.675-.495-.7-.164-1.253-.28-1.655-.349a68.766 68.766 0 0 0-1.742-.26 67.44 67.44 0 0 1-1.506-.231 32.346 32.346 0 0 1-1.314-.262c-.545-.117-.958-.236-1.24-.356a8.881 8.881 0 0 1-.92-.464c-.332-.19-.584-.413-.756-.669a2.491 2.491 0 0 1-.363-.882c-.183-.866.066-1.657.747-2.373.681-.716 1.653-1.208 2.915-1.474a7.059 7.059 0 0 1 1.75-.14 9.366 9.366 0 0 1 1.588.183c.452.098.883.22 1.296.365.412.146.707.26.884.342.177.082.29.139.337.168.2.091.388.098.566.02.197-.054.328-.189.394-.402l1.025-3.131c.105-.288.021-.524-.253-.705a6.831 6.831 0 0 0-.356-.204c-.141-.077-.44-.207-.895-.39a9.93 9.93 0 0 0-1.416-.45c-.49-.116-1.112-.207-1.869-.274a11.715 11.715 0 0 0-2.294.026l-.71-3.364a.597.597 0 0 0-.273-.401.65.65 0 0 0-.494-.075l-2.69.568a.64.64 0 0 0-.41.276.589.589 0 0 0-.098.47l.726 3.44c-2.004.823-3.517 2.034-4.54 3.634-1.02 1.6-1.346 3.279-.975 5.037.11.522.272 1.007.485 1.454.212.448.441.842.687 1.183.245.34.56.66.941.96.382.298.737.549 1.065.752.327.204.74.4 1.237.587.498.188.92.335 1.27.44.348.106.805.216 1.37.33.565.113 1.009.195 1.332.247.323.052.765.125 1.326.219.774.116 1.35.21 1.726.284.376.074.857.185 1.444.334.586.148 1.025.305 1.317.47.291.165.57.385.837.662.266.276.438.592.513.95.213 1.006-.032 1.869-.733 2.589s-1.59 1.194-2.665 1.422a7.406 7.406 0 0 1-1.507.159c-1.797.033-3.579-.422-5.346-1.366l-.048-.03a.516.516 0 0 0-.514-.07c-.207.07-.344.178-.41.326L6.16 30.062c-.145.297-.077.555.205.775.083.062.224.153.422.27.198.118.558.291 1.078.521.52.23 1.076.432 1.668.606.592.175 1.326.316 2.202.423.876.108 1.764.126 2.665.056l.707 3.344a.59.59 0 0 0 .28.39.639.639 0 0 0 .487.087l2.69-.569a.649.649 0 0 0 .422-.268.595.595 0 0 0 .085-.478l-.706-3.344c2.042-.777 3.575-2.01 4.6-3.697 1.023-1.687 1.33-3.505.918-5.454a6.18 6.18 0 0 0-.641-1.741Z" fill="#79A164" fill-opacity=".65"/></svg>