<svg width="32" height="49" fill="none" xmlns="http://www.w3.org/2000/svg"><path opacity=".8" d="M27.973 27.182a8.853 8.853 0 0 0-1.147-1.677c-.408-.458-.94-.876-1.6-1.256-.66-.38-1.243-.674-1.75-.885-.506-.21-1.185-.423-2.037-.636a33.392 33.392 0 0 0-2.01-.454 81.272 81.272 0 0 0-2.114-.344 78.717 78.717 0 0 1-1.828-.304 38.085 38.085 0 0 1-1.595-.34c-.662-.153-1.165-.306-1.508-.46a10.85 10.85 0 0 1-1.12-.59c-.404-.242-.711-.524-.923-.847a3.238 3.238 0 0 1-.448-1.11c-.23-1.089.064-2.08.883-2.972.82-.893 1.993-1.5 3.52-1.823a8.245 8.245 0 0 1 2.121-.16c.738.037 1.38.118 1.928.245s1.073.284 1.574.471c.502.187.86.333 1.075.438.216.105.353.176.411.214.243.116.471.126.686.031.238-.067.396-.234.474-.502l1.213-3.92c.125-.36.021-.657-.313-.887a8.417 8.417 0 0 0-.434-.26c-.171-.098-.534-.264-1.088-.498a11.907 11.907 0 0 0-1.721-.578c-.595-.15-1.351-.27-2.269-.36a13.72 13.72 0 0 0-2.782.01l-.893-4.229a.765.765 0 0 0-.333-.506.77.77 0 0 0-.601-.1l-3.256.689a.76.76 0 0 0-.494.343.754.754 0 0 0-.115.588l.913 4.325c-2.423 1.013-4.246 2.52-5.47 4.518C3.7 15.355 3.32 17.46 3.787 19.67c.139.657.34 1.267.601 1.83.262.564.543 1.061.844 1.491.301.43.685.834 1.15 1.213.467.378.9.697 1.299.955.399.258.9.508 1.506.748.605.24 1.12.43 1.543.565.423.136.978.279 1.664.426.687.148 1.226.256 1.618.324.392.067.93.163 1.61.286.94.153 1.638.277 2.095.373.457.096 1.042.24 1.755.433.712.192 1.245.393 1.6.603.355.21.696.489 1.022.838.326.35.536.748.631 1.197.267 1.265-.02 2.346-.864 3.243-.844.898-1.917 1.484-3.219 1.76a8.643 8.643 0 0 1-1.825.185c-2.178.025-4.343-.564-6.495-1.765l-.058-.038a.613.613 0 0 0-.625-.093c-.25.086-.415.221-.493.405l-1.8 3.768c-.173.371-.087.696.257.975.1.079.272.194.513.343.242.15.68.371 1.313.665.632.293 1.308.551 2.028.776.72.224 1.61.408 2.674.552 1.063.143 2.14.174 3.232.094l.888 4.204a.754.754 0 0 0 .344.492c.185.12.381.158.59.114l3.257-.688a.77.77 0 0 0 .509-.333.763.763 0 0 0 .1-.599l-.889-4.204c2.47-.957 4.317-2.489 5.542-4.597 1.226-2.107 1.58-4.387 1.063-6.837a8.041 8.041 0 0 0-.794-2.191Z" fill="#79A164"/></svg>