<svg width="19" height="29" fill="none" xmlns="http://www.w3.org/2000/svg"><path d="M16.062 15.844a5.044 5.044 0 0 0-.65-.953 3.607 3.607 0 0 0-.906-.714 8.788 8.788 0 0 0-.989-.504 8.413 8.413 0 0 0-1.152-.363c-.481-.122-.86-.208-1.136-.259-.277-.05-.676-.116-1.196-.196A45.457 45.457 0 0 1 9 12.68a21.7 21.7 0 0 1-.903-.194 4.911 4.911 0 0 1-.853-.262 6.12 6.12 0 0 1-.633-.337 1.57 1.57 0 0 1-.522-.481 1.848 1.848 0 0 1-.254-.63c-.131-.62.035-1.182.497-1.689.463-.506 1.126-.85 1.99-1.033.381-.08.781-.11 1.198-.09.417.022.78.068 1.09.141.31.072.607.162.89.268.284.107.487.19.609.25.121.06.2.1.232.122a.444.444 0 0 0 .388.018c.134-.038.224-.133.268-.285l.683-2.226c.07-.205.011-.373-.178-.505a4.756 4.756 0 0 0-.245-.147 7.242 7.242 0 0 0-.615-.284 6.72 6.72 0 0 0-.974-.33 8.937 8.937 0 0 0-1.283-.206 7.72 7.72 0 0 0-1.572.005l-.508-2.403a.436.436 0 0 0-.189-.288.434.434 0 0 0-.34-.056l-1.84.388a.428.428 0 0 0-.28.195.43.43 0 0 0-.064.334l.52 2.457c-1.37.575-2.4 1.43-3.09 2.564-.69 1.134-.904 2.33-.638 3.585.079.373.192.72.34 1.04.149.32.308.603.479.848.17.244.387.474.651.69.264.214.509.396.734.543.226.147.51.289.852.425.342.137.633.245.873.322.24.078.553.16.941.243.388.085.693.146.915.185.222.039.525.093.91.164.532.087.926.158 1.185.213.258.055.589.137.992.247.403.11.704.224.905.343.201.12.394.278.578.477.185.198.304.425.358.68.152.719-.01 1.333-.487 1.842-.476.51-1.082.842-1.818.998-.336.07-.68.105-1.032.104-1.231.013-2.456-.323-3.673-1.007l-.033-.021a.345.345 0 0 0-.353-.054c-.142.05-.235.126-.279.23l-1.015 2.14c-.098.21-.049.395.146.553.057.046.154.11.29.196.137.085.385.21.742.378.358.167.74.314 1.148.442.406.128.91.233 1.512.315.601.082 1.21.1 1.827.056l.505 2.389a.43.43 0 0 0 .194.28c.105.068.216.09.334.064l1.84-.389a.434.434 0 0 0 .288-.189.435.435 0 0 0 .056-.34l-.504-2.388c1.395-.542 2.438-1.412 3.13-2.608.692-1.197.89-2.491.597-3.883a4.594 4.594 0 0 0-.45-1.246Z" fill="#79A164" fill-opacity=".5"/></svg>